IKResults EF3
version=1
nRows=24
nColumns=24
inDegrees=yes

Units are S.I. units (second, meters, Newtons, ...)
If the header above contains a line with 'inDegrees', this indicates whether rotational values are in degrees (yes) or radians (no).

endheader
time	pelvis_tilt	pelvis_list	pelvis_rotation	pelvis_tx	pelvis_ty	pelvis_tz	hip_flexion_r	hip_adduction_r	hip_rotation_r	knee_angle_r	ankle_angle_r	subtalar_angle_r	mtp_angle_r	hip_flexion_l	hip_adduction_l	hip_rotation_l	knee_angle_l	ankle_angle_l	subtalar_angle_l	mtp_angle_l	lumbar_extension	lumbar_bending	lumbar_rotation
      6.32000000	     -3.86389394	     -1.26753560	    -79.90887512	     -0.23008630	      0.93558713	      0.37768720	     28.22682367	      4.47685079	     -0.71361980	    -25.05467323	     -1.69612693	    -19.73479612	      0.00000000	     -5.26296002	     -5.81036721	      5.18358090	    -51.10652925	     -6.75379143	     -6.11491216	      0.00000000	    -10.34137910	      6.86684189	     -4.81822509
      6.33000000	     -4.00977492	     -1.45288479	    -80.58929817	     -0.23267232	      0.93822757	      0.39309698	     27.12667788	      5.30283803	     -0.11865630	    -25.21508816	     -0.56014421	    -19.98801622	      0.00000000	     -3.74762305	     -5.98962425	      4.42865472	    -54.04003091	     -9.68640726	     -6.86425308	      0.00000000	    -10.57298013	      6.84267812	     -3.71643210
      6.34000000	     -4.13930370	     -1.53678528	    -81.04623100	     -0.23487793	      0.94072910	      0.40767959	     26.13172095	      5.93715654	      0.12863734	    -25.29331937	      0.68634168	    -19.81607653	      0.00000000	     -2.02483023	     -6.01320839	      4.19846703	    -56.77775936	    -12.58257414	    -10.15560293	      0.00000000	    -10.88938214	      6.90966336	     -2.54685952
      6.35000000	     -4.23622290	     -1.60638166	    -81.47785598	     -0.23694588	      0.94318879	      0.42199024	     25.08633063	      6.52917654	      0.51796319	    -25.26567773	      1.31629136	    -19.62823317	      0.00000000	     -0.31449213	     -5.99475479	      3.89894557	    -59.24700648	    -11.80202082	    -12.51474346	      0.00000000	    -10.97821314	      6.87701499	     -2.19079311
      6.36000000	     -4.26110999	     -1.65138512	    -81.84830389	     -0.23878535	      0.94571237	      0.43607486	     23.99612792	      6.99131184	      0.88889951	    -25.15091096	      2.45500727	    -18.95716043	      0.00000000	      1.46280527	     -5.89938013	      3.53861577	    -61.64350920	    -11.79658680	    -15.59154173	      0.00000000	    -11.11004256	      6.85542036	     -1.45554245
      6.37000000	     -4.17460225	     -1.70876506	    -82.15152053	     -0.24045076	      0.94835048	      0.45003469	     22.83742407	      7.27676986	      1.18798943	    -24.96355709	      3.27282050	    -19.10728762	      0.00000000	      3.25718518	     -5.64820280	      3.31753704	    -63.67044950	    -10.20396332	    -16.80292797	      0.00000000	    -11.29263686	      6.64239344	     -0.94792361
      6.38000000	     -4.02643750	     -1.77666125	    -82.38384072	     -0.24185734	      0.95104169	      0.46396004	     21.63275635	      7.43224272	      1.37527625	    -24.75127317	      4.15171639	    -19.02166239	      0.00000000	      5.05703733	     -5.26600876	      3.26177586	    -65.28246484	     -8.96059278	    -18.13280882	      0.00000000	    -11.53848528	      6.42585759	     -0.42967112
      6.39000000	     -3.86178345	     -1.80822817	    -82.55469417	     -0.24303377	      0.95370503	      0.47781789	     20.42470682	      7.50368445	      1.46499655	    -24.46038328	      5.05955729	    -18.71499464	      0.00000000	      6.86951061	     -4.80326841	      3.31437914	    -66.57828369	     -7.94783639	    -19.59172411	      0.00000000	    -11.65360110	      6.16051876	      0.06823713
      6.40000000	     -3.70315013	     -1.87723487	    -82.69048971	     -0.24410224	      0.95632503	      0.49163601	     19.14962315	      7.53181342	      1.40636466	    -24.10321356	      6.06971653	    -18.12188804	      0.00000000	      8.67671463	     -4.35949738	      3.36079903	    -67.65554226	     -7.17977891	    -21.27805585	      0.00000000	    -11.81561619	      5.92001855	      0.48275840
      6.41000000	     -3.52696006	     -1.96353623	    -82.85654536	     -0.24515848	      0.95882048	      0.50553969	     17.82406244	      7.50318643	      1.20826298	    -23.69099970	      7.10254895	    -17.18845643	      0.00000000	     10.39826692	     -3.89833609	      3.39432358	    -68.40653216	     -6.58100467	    -22.96160045	      0.00000000	    -11.94603154	      5.63598009	      0.96160966
      6.42000000	     -3.41146735	     -2.08911461	    -83.01316484	     -0.24625081	      0.96121134	      0.51946006	     16.40873996	      7.52641732	      0.95834403	    -23.16212880	      8.06283519	    -16.12706441	      0.00000000	     12.05437772	     -3.52169503	      3.42459880	    -68.86936310	     -6.03521999	    -24.38288850	      0.00000000	    -12.11462309	      5.43100352	      1.41686857
      6.43000000	     -3.33640584	     -2.17461521	    -83.05232014	     -0.24726248	      0.96334648	      0.53299596	     15.06524586	      7.53776977	      0.52151112	    -22.60958638	      9.10436827	    -14.81519192	      0.00000000	     13.79457974	     -3.16918025	      3.58501039	    -69.17475769	     -5.48502511	    -25.52573278	      0.00000000	    -12.30980641	      5.29252964	      1.67237181
      6.44000000	     -3.28259196	     -2.34161391	    -83.32367260	     -0.24862336	      0.96560642	      0.54701403	     13.38757283	      7.77755295	      1.02437792	    -21.64937153	      9.29463412	    -14.72780962	      0.00000000	     15.26757386	     -2.92517774	      3.52903064	    -69.07944620	     -5.31312696	    -25.69801801	      0.00000000	    -12.58895233	      5.01968047	      1.85170761
      6.45000000	     -3.23067400	     -2.51198783	    -83.58831985	     -0.24995012	      0.96757460	      0.56078733	     11.83466362	      7.95583021	      1.26863942	    -20.90137630	     10.02183483	    -14.45078581	      0.00000000	     16.69485935	     -2.72407924	      3.47351207	    -68.77193280	     -4.28887015	    -26.35976543	      0.00000000	    -12.78171704	      4.92537649	      2.71616308
      6.46000000	     -3.13708696	     -2.69006297	    -83.96584007	     -0.25133140	      0.96943914	      0.57482103	     10.28432101	      8.10989072	      1.67349992	    -20.21728852	     10.61096036	    -14.11360776	      0.00000000	     17.98374316	     -2.51198220	      3.28162943	    -68.15931201	     -3.65613861	    -26.69277140	      0.00000000	    -13.05705260	      4.71183424	      3.37102757
      6.47000000	     -3.01896852	     -2.87011704	    -84.40506776	     -0.25275523	      0.97100405	      0.58876657	      8.72628613	      8.25160300	      2.28493713	    -19.51586585	     11.00152550	    -13.99767615	      0.00000000	     19.21409989	     -2.31707848	      3.04849123	    -67.30379818	     -3.30944361	    -26.82285124	      0.00000000	    -13.32178460	      4.37565012	      3.86339620
      6.48000000	     -2.90782803	     -3.01447330	    -84.91205547	     -0.25426400	      0.97220238	      0.60275605	      7.22321483	      8.40232402	      3.08763192	    -18.89544669	     11.66319295	    -13.95444697	      0.00000000	     20.42615890	     -2.15039440	      2.76282085	    -66.36405782	     -2.66438531	    -27.06780786	      0.00000000	    -13.53230319	      4.12339503	      4.80623288
      6.49000000	     -2.77782163	     -3.17602118	    -85.42621922	     -0.25577222	      0.97315546	      0.61654061	      5.79792669	      8.46143121	      3.51482220	    -18.35928027	     12.20247822	    -13.74430596	      0.00000000	     21.50739259	     -2.00620206	      2.42757014	    -65.10882572	     -2.17456896	    -27.19308946	      0.00000000	    -13.80657199	      3.81461338	      5.62221787
      6.50000000	     -2.59463066	     -3.24674115	    -86.01593394	     -0.25726299	      0.97355815	      0.63022624	      4.33019330	      8.56744179	      5.01133781	    -17.65236298	     12.50485141	    -13.90739561	      0.00000000	     22.66851749	     -1.84336632	      2.02469256	    -63.71586735	     -2.00894357	    -27.21960236	      0.00000000	    -13.97626440	      3.29553071	      5.95481659
      6.51000000	     -2.46957649	     -3.31062152	    -86.62860676	     -0.25871395	      0.97354544	      0.64384145	      2.98929312	      8.63560518	      6.03709692	    -17.10787890	     13.44464161	    -14.52409497	      0.00000000	     23.74956851	     -1.76356962	      1.64232281	    -62.17859850	     -1.38338670	    -27.30379161	      0.00000000	    -14.13575981	      3.09244439	      7.25020799
      6.52000000	     -2.35840623	     -3.34208606	    -87.32558725	     -0.26014121	      0.97323464	      0.65747644	      1.68744770	      8.68051489	      7.07167531	    -16.57742128	     14.02418890	    -14.90814941	      0.00000000	     24.77425939	     -1.73830985	      1.21201136	    -60.48140270	     -0.90826792	    -27.19021169	      0.00000000	    -14.28678046	      2.76868012	      8.21027623
      6.53000000	     -2.25833184	     -3.38998459	    -88.00980067	     -0.26155587	      0.97263539	      0.67108535	      0.40259927	      8.68647496	      7.98983159	    -16.08890236	     14.27504571	    -15.03792542	      0.00000000	     25.73257289	     -1.75628530	      0.78832220	    -58.62667929	     -0.76831797	    -27.11279189	      0.00000000	    -14.43498083	      2.35967213	      8.62019657
      6.54000000	     -2.22830168	     -3.41198504	    -88.71897394	     -0.26295856	      0.97180829	      0.68465980	     -0.80990429	      8.71204866	      8.80543057	    -15.66776096	     15.09055946	    -15.36273591	      0.00000000	     26.65532915	     -1.89961158	      0.36390080	    -56.64980379	     -0.35274257	    -26.84259838	      0.00000000	    -14.55919667	      2.21128781	     10.04456875
      6.55000000	     -2.20934338	     -3.47101380	    -89.38455268	     -0.26426697	      0.97071269	      0.69827521	     -2.03826967	      8.69540244	      9.50099073	    -15.29819533	     15.43441368	    -15.37634826	      0.00000000	     27.47425335	     -2.05330509	      0.00058452	    -54.48935772	     -0.19785652	    -26.60293607	      0.00000000	    -14.72682757	      1.86322712	     10.63725348
